<svg xmlns="http://www.w3.org/2000/svg" version="1.1" xmlns:xlink="http://www.w3.org/1999/xlink" width="512"
    height="512" x="0" y="0" viewBox="0 0 66 66" style="enable-background:new 0 0 512 512" xml:space="preserve"
    class="hovered-paths">
    <g>
        <path fill="#f0f6f6" d="M58.05 18.441v30.476H7.95V5.069a3.318 3.318 0 0 1 3.321-3.32h30.075z" opacity="1"
            data-original="#f6f0f5" class="hovered-path"></path>
        <path fill="#3cc283"
            d="M7.948 48.917v12.018a3.321 3.321 0 0 0 3.321 3.32h43.462a3.321 3.321 0 0 0 3.32-3.32V48.917z" opacity="1"
            data-original="#8553e0" class=""></path>
        <path fill="#fff"
            d="M52.423 36.443a.83.83 0 0 1-.83-.83v-9.417a.83.83 0 1 1 1.66 0v9.417a.83.83 0 0 1-.83.83zM52.423 41.996a.83.83 0 0 1-.83-.83V39.29a.83.83 0 1 1 1.66 0v1.876a.83.83 0 0 1-.83.83z"
            opacity=".5"></path>
        <path fill="#1f2321" d="M58.05 18.441v1.954H45.077c-3.136 0-5.685-2.54-5.685-5.675V1.748h1.953z" opacity=".1">
        </path>
        <path fill="#b8c3c0" d="M58.052 18.445H45.075a3.724 3.724 0 0 1-3.724-3.724V1.744z"></path>
        <path fill="#fff"
            d="M17.36 61.517c-.347 0-.675-.04-.982-.123a3.582 3.582 0 0 1-.844-.343.647.647 0 0 1-.213-.192.523.523 0 0 1-.089-.316c0-.147.048-.277.144-.392a.47.47 0 0 1 .378-.171c.091 0 .174.018.247.054.183.092.382.165.598.22.214.055.441.083.68.083.274 0 .538-.05.79-.151s.46-.296.625-.585c.164-.288.247-.72.247-1.298v-5.947a.62.62 0 0 1 .178-.447.587.587 0 0 1 .44-.185c.174 0 .323.061.446.185a.609.609 0 0 1 .185.447v5.865c0 .66-.08 1.202-.24 1.627-.16.427-.375.761-.646 1.004-.27.243-.574.414-.913.515-.338.1-.682.15-1.03.15zM25.809 61.517a7.788 7.788 0 0 1-1.848-.199 8.953 8.953 0 0 1-1.422-.46.682.682 0 0 1-.267-.226.553.553 0 0 1-.117-.336c0-.156.05-.292.15-.406a.525.525 0 0 1 .413-.172.65.65 0 0 1 .26.055c.312.138.695.266 1.147.385.454.119.974.179 1.56.179.457 0 .867-.05 1.23-.145.361-.095.647-.261.857-.494.212-.233.316-.547.316-.941a.881.881 0 0 0-.316-.708c-.21-.178-.49-.327-.837-.446a13.11 13.11 0 0 0-1.147-.33c-.417-.1-.832-.213-1.243-.336a5.327 5.327 0 0 1-1.14-.488c-.349-.2-.628-.46-.838-.776s-.316-.717-.316-1.202c0-.513.134-.982.405-1.408.27-.425.67-.767 1.202-1.023.531-.257 1.18-.385 1.95-.385.54 0 1.04.041 1.498.124a7.19 7.19 0 0 1 1.236.33c.1.036.19.096.267.178.078.083.117.206.117.37a.629.629 0 0 1-.143.392.485.485 0 0 1-.405.186.322.322 0 0 1-.11-.021 1.395 1.395 0 0 0-.11-.034 6.785 6.785 0 0 0-1.024-.267 6.49 6.49 0 0 0-1.188-.104c-.696 0-1.278.132-1.745.398-.467.266-.7.656-.7 1.167 0 .34.105.61.316.812.21.2.49.361.838.48.347.12.728.227 1.14.323.412.097.824.203 1.236.323.412.119.792.277 1.14.473.348.197.627.459.838.784.21.325.316.749.316 1.27 0 .513-.144.974-.433 1.381-.288.407-.696.725-1.222.955-.527.228-1.147.342-1.861.342zM35.493 61.517c-.98 0-1.827-.21-2.541-.63a4.357 4.357 0 0 1-1.663-1.745c-.393-.742-.6-1.594-.618-2.556.018-.961.225-1.813.618-2.554a4.343 4.343 0 0 1 1.663-1.745c.714-.421 1.56-.632 2.54-.632s1.828.21 2.542.632a4.35 4.35 0 0 1 1.662 1.745c.393.74.6 1.593.618 2.554-.018.962-.225 1.814-.618 2.556a4.364 4.364 0 0 1-1.662 1.745c-.714.42-1.562.63-2.541.63zm0-1.167c.76 0 1.405-.167 1.936-.502a3.264 3.264 0 0 0 1.216-1.352c.279-.568.42-1.204.42-1.91s-.141-1.341-.42-1.909a3.27 3.27 0 0 0-1.216-1.353c-.531-.334-1.176-.502-1.936-.502-.761 0-1.407.168-1.937.502a3.27 3.27 0 0 0-1.216 1.353c-.28.568-.419 1.204-.419 1.91s.14 1.341.419 1.909c.279.568.684 1.019 1.216 1.352.53.335 1.176.502 1.937.502zM43.02 61.45c-.173 0-.32-.06-.439-.18s-.178-.264-.178-.44v-8.2c0-.247.087-.46.26-.639a.85.85 0 0 1 .632-.267h.18c.154 0 .297.037.425.11.128.073.238.174.33.302l5.288 7.637v-7.417a.62.62 0 0 1 .178-.447.587.587 0 0 1 .44-.185c.174 0 .323.061.447.185a.609.609 0 0 1 .185.447v8.2a.85.85 0 0 1-.267.632.882.882 0 0 1-.639.262h-.166c-.146 0-.283-.035-.411-.104s-.234-.158-.316-.268L43.653 53.4v7.43c0 .176-.062.321-.186.44a.62.62 0 0 1-.446.18z">
        </path>
        <path fill="#3ab686"
            d="M23.343 42.62c-.62 0-1.172-.074-1.658-.221-.487-.147-.873-.422-1.16-.824s-.428-.98-.428-1.738v-4.89a2.71 2.71 0 0 0-.104-.754c-.07-.24-.252-.46-.544-.661-.294-.2-.79-.354-1.484-.464-.264-.046-.46-.153-.591-.324a.952.952 0 0 1-.198-.603c0-.23.066-.432.198-.601.13-.171.327-.28.591-.326.695-.123 1.19-.282 1.484-.475.292-.192.474-.413.544-.66.07-.248.104-.494.104-.741v-4.892c0-.756.142-1.337.429-1.739.286-.4.672-.675 1.16-.822a5.723 5.723 0 0 1 1.657-.22h.277c.216 0 .405.08.569.243.162.162.243.352.243.568s-.081.405-.243.567a.779.779 0 0 1-.569.245h-.348c-.432 0-.745.054-.939.162s-.312.235-.358.382c-.047.147-.07.29-.07.43v5.145c0 .696-.178 1.263-.533 1.704-.356.44-.873.784-1.553 1.03.68.248 1.197.591 1.553 1.032.355.44.534 1.008.534 1.705v5.145c0 .123.022.262.069.417.046.154.165.286.358.394s.507.162.94.162h.347c.216 0 .405.081.569.243a.778.778 0 0 1 .243.569.777.777 0 0 1-.243.567.784.784 0 0 1-.569.244h-.277zM38.542 42.62a.784.784 0 0 1-.569-.245.777.777 0 0 1-.243-.567c0-.218.081-.407.243-.569a.783.783 0 0 1 .569-.243h.348c.432 0 .745-.054.939-.162.193-.108.312-.24.358-.394.047-.155.07-.294.07-.417v-5.145c0-.697.178-1.265.533-1.705.356-.44.873-.784 1.553-1.032-.68-.246-1.197-.59-1.553-1.03-.355-.441-.534-1.008-.534-1.704V24.26c0-.14-.022-.282-.069-.429-.046-.147-.165-.274-.358-.382-.194-.108-.507-.162-.94-.162h-.347a.779.779 0 0 1-.569-.245c-.162-.162-.243-.35-.243-.567s.081-.406.243-.568a.783.783 0 0 1 .569-.243h.277c.62 0 1.172.073 1.658.22.487.147.873.422 1.16.822.286.402.428.983.428 1.739v4.892c0 .247.035.493.104.74.07.248.252.469.544.66.294.194.79.353 1.484.476.264.047.46.155.591.326.132.17.198.37.198.601a.952.952 0 0 1-.198.603c-.13.171-.327.278-.591.324-.695.11-1.19.264-1.484.464-.292.201-.474.421-.544.661a2.71 2.71 0 0 0-.104.754v4.89c0 .757-.142 1.336-.429 1.738a2.14 2.14 0 0 1-1.16.824 5.723 5.723 0 0 1-1.657.22h-.277zM31.09 24.993c.325 0 .605.119.84.354.236.236.355.523.355.86 0 .324-.119.603-.354.839a1.143 1.143 0 0 1-.84.354 1.17 1.17 0 0 1-.86-.354 1.146 1.146 0 0 1-.354-.839c0-.337.119-.624.354-.86.237-.235.524-.354.86-.354zm0 3.985c.217 0 .382.054.496.162.115.108.18.249.193.424l.363 6.673v2.002c0 .297-.1.546-.303.749a1.016 1.016 0 0 1-.748.303.985.985 0 0 1-.738-.303 1.037 1.037 0 0 1-.293-.749v-2.002l.363-6.673a.648.648 0 0 1 .183-.424c.108-.108.27-.162.485-.162z">
        </path>
        <path fill="#d9e1da"
            d="M33 6.7H12.834a.976.976 0 1 1 0-1.953H33a.976.976 0 1 1 0 1.954zM29.217 11.58H12.834a.976.976 0 1 1 0-1.954h16.383a.976.976 0 1 1 0 1.954zM24.479 16.458H12.834a.976.976 0 1 1 0-1.953h11.645a.976.976 0 1 1 0 1.953z">
        </path>
    </g>
</svg>